<?xml version="1.0" encoding="UTF-8"?>
<svg id="Layer_1" data-name="Layer 1" xmlns="http://www.w3.org/2000/svg" viewBox="0 0 622.17 241.34">
  <defs>
    <style>
      .cls-1 {
        fill: #ece6d7;
      }
    </style>
  </defs>
  <g>
    <path class="cls-1" d="M17.45,51.28c-.55-1.29-.97-2.62-1.24-3.85l-.66-2.96c-.72-3.26-.83-6.6-1.18-9.94-.18-1.78,1.07-3.62,2.89-3.58,2.15.05,4.17.74,6.15,1.56.81.34,1.78.84,2.6.79,2.3-2.46,7.89-4.13,9.52-2.56.51.49.66,1.21.88,1.97l.91,3.18,1.31,6.33.82,4.47c.83,1.97,1.3,4.31.44,6.4-.3.72-.35,1.12.16,1.83l1.5,2.12c.47.66.63,1.49.86,2.29l.96,3.34,2.2,8.35.83,3.51.46,1.38,1.11,6.55c.32,1.86-.2,3.53-1.57,4.89.31.83.85,1.55,1.51,2.15.79.72,1.15,1.63,1.52,2.59.75,1.92.78,3.7.98,5.8l.27,2.8.78,6.63.56,5.88.15,2.42.51,8.6.25,2.88.22,3.34.24,5.28.25,4.09.26,2.71c.08.79.38,2.39,1.48,2.31,2.4-.17,1.89-6.34,1.79-9.64l-.16-5.45-.25-4.32-.23-3.59-.26-5.04-.18-4.06-.13-2.91.02-9.91.2-4.45.23-3.11.82-7.42c.14-1.25.7-2.83,1.1-4.04.27-.83.92-1.41.6-2.37-.63-1.91-.44-3.84-.18-5.82l.32-2.39.87-4.81.92-8.62c.18-1.68.36-2.87,1.34-4.26.69-.98-.29-2.64-.25-3.72.09-2.47.8-4.74,1.04-7.18l.29-2.87.23-2.34c-.82-3.34.82-7.34,3.54-7.43,2.27-.07,4.08,2.72,4.1,5.07l.17,17.78.24,5.85c.11,2.65.1,5.74-1.19,8-.66,1.15-.16,1.8.45,2.75,1.23,1.89,1.27,4.32,1.44,6.51.16,2.05-.31,3.4.17,6.26s.68,5.67.83,8.57c.14,2.73.32,5.54-.44,8.18-.19.66-.71,1.45-.73,2.14-.05,1.25.53,1.56,1.34,2.22.96.78.64,2.5.53,3.58l-.34,3.37-.3,3.11-.2,3.38-.82,5.76-.74,7.21-.27,2.82-.88,7.24-.88,7.04-1.09,8.77c-.25,1.98.04,3.88-.81,5.78-.47,1.06-1.41,2.53-2.73,2.71-2.46.32-4.99.18-7.38-.23-.33-.3-.94-.84-1.3-.84-.44-.01-1.05.46-1.5.8-.99.76-2.42.8-3.64,1.15-3.09.87-6.49-.62-7.21-3.82l-1.07-4.76-.95-4.08-1.14-5.08-.92-4.13-.96-4.06-1.16-5.09-.9-3.94-.93-4.03-.99-4.29c-.49-2.1,1.54-3.25.79-4.3l-2.42-3.4-.47-1.91-1.06-4.27-.96-3.88-.87-3.16-1.05-4.23-.86-3.94c-.19-.88-.05-1.81.02-2.72.23-2.68,1.35-3.11,1.28-4.44-1.1-1.07-2.18-2.15-2.93-3.35l-.54-1.87-.99-2.9-.9-2.69-1.12-3.92-.9-3.2-.88-3.39c-.64-2.48-.89-4.9-.86-7.49l-1.84-2.49-.82-1.9Z"/>
    <path class="cls-1" d="M355.54,147.29l-5.29-.08c-.66-.47-1.75-1.46-1.96-2.22l-1.13-3.97-.77-3.06-1.81-7.37-.78-3.07-1.29-4.94-.73-3.64c-.53-1.09-.84-2.28-.92-3.56-.68-1.67-1.1-3.43-.84-5.25l1.01-1.83c-.21-.46-.95-.94-1.43-1.23-1.45-.89-1.52-2.68-1.88-4.16l-1.13-4.64-.93-3.94-.81-3.18-1.03-4.45-.69-3.08-.92-3.67-.23-5.53-.98-1.62-.68-1.98-1.01-3.03-1.47-5.55-.6-2.47-.96-4.32-1.18-5.64c-.17-.81.62-2.41.05-3.04-.74-.82-1.22-1.33-1.46-2.3l-.91-3.66-1.1-4.61-.87-3.44-1.1-4.19-1-3.79-1.07-4.31c-.3-1.22-1.27-2.86-.45-4.19.24-.4,1.19-1.15,1.68-1.15l7.91-.05c1.4,0,1.85,1.15,2.47,1,.33-.08,1.8-1.7,4.7-1.8.7-.02,1.96.04,2.54.22l2.17.68c1.75.55,2.18,2.16,2.68,3.61l.86,2.5,1.58,6.29,1.02,3.91,1.15,4.65,1,4.03.86,3.25c.27,1.02.35,1.9-.18,2.87-1.67,3,.41,3.16,1.82,6.08l.87,1.8,1.03,2.58,1.01,3.55,1.04,4.25.85,3.47,1.17,4.8,1.01,4.26.9,3.66c.42,1.71.91,3.41.99,5.24l-.42,4.9,2.21,2.37c1.02,1.09.96,2.87,1.3,4.27l1.01,4.08.89,3.36,1.29,5.23.72,2.93.9,3.36.37,1.22,1.06,4.29c.33,1.33.5,2.29.18,3.77-.15.72.77,1.63,1.1,2.3l.85,1.77,1.05,4,1.05,4.02c.84,3.2.33,7.01-2.19,8.38-1.99,1.08-6.18,1.54-7.78.21-.91-.76-1.8-.38-2.5.36-.98,1.03-2.64.52-3.86.5Z"/>
    <path class="cls-1" d="M189.28,156.99c-1.7.19-3.38-2.08-4.99-.57-.68.64-1.69,1-2.67.92l-3.15-.24c-1.88.28-3.88.17-5.08-1.78-.98-1.6-1.27-3.88-1.77-5.8l-.75-2.89-.99-3.99-1.2-4.83-.88-3.46-.71-2.55-.95-4.05-.63-2.54-.54-2.39c-.39-1.7-.1-3.21.6-4.92.14-.35-.87-.73-1.2-.89-1.21-.57-1.33-2.18-1.61-3.24l-.95-3.68-.98-4.22-1.05-4.53-.89-3.6-1.19-5.03-.73-3.01-.09-4.98c-1.02-1.96-1.94-3.81-2.49-5.94l-.55-2.13-.92-3.19-1.4-6-.81-3.81-.61-2.19c-.43-1.55-.16-2.98.11-4.63l-1.37-1.5c-.61-1.1-.68-2.46-.98-3.64l-1.03-3.98-1.15-4.59-.99-3.82-.57-2.27-.67-2.42-.66-2.75-.91-3.68c-.14-.57-.09-1.52.15-2.04.22-.48,1.05-1.13,1.73-1.13l8.51-.02c.39.25,1.38.92,1.76.69l2.24-1.37,5.19.06,2.67.9c.64.22,1.12,1.1,1.35,1.73l.96,2.68.63,1.85.99,4.06.61,2.3,1.81,7.12,1.04,4.29,1,3.77c.25.93.26,1.85-.04,2.75l-.5,1.49c-.09.26-.53.84-.45,1.1.19.63,1.43,1.4,2.42,3.41l.89,1.8,1.25,3.04.76,2.53,1.03,4.03,1.58,6.5.84,3.71.71,2.53,1.22,5.49.62,2.51c.34,1.37.29,3.06.09,4.56-.07.55-1.04,1.47-.49,2.15.68.74,2.13,1.44,2.47,2.47l1.11,3.38.63,2.78,1.59,6.36.57,2.2.94,3.69,1.35,5.38.65,2.29.62,2.73c.31,1.35.75,2.11.09,3.4-.55,1.08.86,1.85,1.29,2.63.72,1.3,1.05,2.85,1.43,4.29l.65,2.46,1.27,5.02c.5,1.98-1.53,6-2.52,6.24l-3.23.78-2.07.23Z"/>
    <path class="cls-1" d="M572.12,136.47l-4.27.62h-6.63c-.67-.29-1.18-1.66-1.2-2.4l-.14-7.12-.23-3.83-.2-2.67c-.11-1.49-.47-3.19-.07-4.63l.55-2c2.02-1.83-.58-3.96-.86-7.23l-.24-2.92-.15-6.9-.16-2.67-.15-2.88-.46-6.72-.17-10.32-.2-4.32c-.2-4.36,1.51-4.94,1.5-5.87,0-1.26-1.51-2.35-1.95-3.92l-1.09-3.92-.19-11.7-.63-5.27-.22-2.42-.19-2.67c-.07-.97.21-2.52.56-3.43l.8-2.11c.16-.42.71-1.28.33-1.63-1.06-1-1.73-1.9-1.92-3.26l-.38-2.73-.14-1.95.02-7.13v-3.45s-.08-4.67-.08-4.67c0-.4.84-1.2,1.23-1.21l3.03-.12c2.49-.1,5.87-.47,7.36.93.39.36,1.44.72,1.91.51,2.45-2.21,5.65-3.34,8.78-2.05,1.04.42,1.64,1.97,1.64,3.08v7.54c-.51.47-1.05,1.17-1,1.66.16,1.75,1.37,1.36,1.51,3.95l.16,2.91.27,4.06.2,2.43.15,7.39.15,2.18.19,2.64.25,3.35.21,3.39.13,6.91.07,1.87.48,4.35c.17,1.54.29,2.82-.87,4.17-.29.33-.68,1.08-.74,1.51-.07.49.5,1.01.77,1.52l1.15,2.16.25,3.85.21,2.89.25,3.36.23,3.59.17,8.04.25,4.32.5,5.98.18,8.03.23,3.62.26,3.57.24,3.13c.06.81.4,1.86-.17,2.52s-1.17,1.63-1.1,2.4c1,.91,1.7,1.66,1.68,3l-.05,4.07c-.02,1.34-.9,2.8-1.99,3.44-2.16,1.25-6,1.69-7.61-.47l-2.43,1.62Z"/>
    <path class="cls-1" d="M95.34,160.11c-.66-.1-1.64,1.64-6.32,2.01-2.17.17-4.32-.62-5.51-2.43-.59-.9-1.43-2.23-1.43-3.34l-.03-14.85-.95-1.47-.11-7.56-.27-5.71-.22-4.39c-.18-3.68,3.11-5.32,1.67-6.36s-1.75-2.41-1.95-3.97l-.37-2.93-.59-5.12-.23-6.01-.2-6.09-.37-2.41-.18-3.18-.15-4.78c-.04-1.37-.03-2.63.45-3.92l1.1-2.96-1-4.49-.56-2.24-.22-2.19c-.27-2.77-.86-5.33-1.03-8.09-.2-3.05-.36-7.24.92-9.3.67-1.08-.18-2.3-.4-3.32l-1.09-4.99-.3-2.61c-.27-2.35-.38-4.54.17-6.98.18-.81,1.52-1.9,2.33-2.31h7.73c1.92,2.34,3.51-.28,6.22-.86,1.28-.28,2.88-.16,4.2-.07.77.05,2.26,1.09,2.32,1.84l.29,3.32.19,3.67.49,4.78.07,12.39c-.48.64-1.22,1.76-.49,2.51l1.4,1.44c1.26,2.26,1.24,4.7,1.15,7.22l-.22,5.83-.07,7.06.22,4.34c.09,1.67.51,3.56-.17,5.11l-.65,1.47c-.15.33.6.93.76,1.27l.95,1.94c.85,3.07,1.08,6.11,1.35,9.26l-.08,6.57-.22,3.13-.25,3.39c-.08,1.08-.27,2.61-.94,3.33-1.18,1.25-.48,2.58.09,3.88.79,1.82,1.4,3.93,1.46,5.93l.16,4.72.53,6.41.16,7.09.15,2.67.17,2.88.44,4.14.14,5.46c-.44.58-1.3,1.38-1.85,1.75-3.01-1.05-5.75-.07-7.39-1.14-.56-.36-.94-.62-1.48-.7Z"/>
    <path class="cls-1" d="M442.88,140.19c.08-2.75-.15-5.23-.44-7.81l-.27-2.42,1.16-1.69c1.69-2.47-1.23-1.7-1.42-5.49l-.13-2.67-.17-4.29-.2-3.86-.37-3.6-.1-5.53,2.18-2.32c-1.71-1.3-2.48-2.66-2.61-4.61l-.19-2.85-.24-3.6-.13-7.18-.23-3.86-.24-3.34-.24-3.13-.25-4.31-.24-5.78c-.08-1.84-.5-3.9.4-5.63.13-.25.68-.69.62-.95s-.34-.68-.57-1.01c-.61-.89-.73-2-.96-3.13l-.35-1.72-.09-8.62-.3-2.57-.29-2.87-.2-3.34c-.14-2.3-.28-4.76.08-7l1.41-2.18-1.5-1.44c-.58-3.13-.96-6.68-.29-9.74s2.72-3.02,5.43-3.33c2.32-.26,4.41-.41,6.25,1.46l2.18-1.42c.68-.44,1.94-.36,2.84-.43l2.89-.23c1.43-.12,2.64.47,2.85,1.98l.72,5.16.19,3.18.15,8.36.2,3.63.37,3.22c.18,1.57-.37,3.17-1.02,4.51-.5,1.04-.45,1.8.14,2.8l1.08,1.83.72,8.34.25,4.55.22,5.55.22,4.9.19,3.63c.05.98-.06,2.37-.72,3.09-.86.95-1.11,2.09-.25,3.07,1.37,1.57,1.36,3.36,1.49,5.34l.23,3.57.24,3.12.19,2.88.15,2.67.15,5.73.14,3.59c.13,3.33.86,6.38.38,8.31l-.78,3.1-.58,1.43c-.37.93,1.88,1.64,1.98,3.69l.13,2.65.51,8.39.13,5.26c.04,1.48.51,3.04-.26,4.44-.55,1.02-1.99,2.4-3.19,2.42l-4.33.09c-1.07.02-2.85-1.61-3.8-1.31-.72.22-1.9,2.65-6.73,2.27-2.13.37-4.15-.78-4.79-2.95Z"/>
    <path class="cls-1" d="M390.36,145.03c-1.65,1.55-2.85,1.85-5.11,1.9l-3.01.07-1.24-1.29-.1-4.23-.21-3.62-.41-3.31-.19-2.93-.08-7.79c.97-.97,1.28-2.32.74-3.51-.56-.78-.72-1.6-.85-2.56l-.75-5.19-.24-3.12-.18-8.24-.15-2.43-.19-2.88-.43-4.39-.19-9-.22-2.91-.24-3.17c-.06-.72-.37-2.07-.1-2.68l1.07-2.42c.25-.55.99-1.47.34-2.09-1.5-1.43-2.33-3.13-2.43-5.27l-.19-4.04-.27-4.55-.64-6.82-.05-8.99c-.01-2.03.75-3.89,1.42-5.85l-1.39-4.74-.29-4.07-.14-6.18c-.03-1.26-.55-2.35-.34-3.65.15-.96.99-2.57,2.12-2.58l8.6-.02c1.97.39,2.95,1.36,3.49,1.45.9.14,1.59-2.07,3.69-2.06h3.17c1.26.01,2.02.99,2.11,2.28l.2,2.84.24,3.36.13,6.22.23,3.62c.09,1.4.31,2.81.11,4.22l-.94,1.95,1.44,1.99.19,3.67.19,5.86.15,2.67.18,2.88.25,3.83.23,3.61.14,7.88.24,2.9c.2,2.46.64,4.87.31,7.27l-1.74,2.56c1.01,1.6,2.39,2.85,2.69,4.65-.78,2.35.09,3.6-.37,4.97l.03,10.7.37,3.02.2,5.6.2,6.54.21,2.9.27,2.6.47,4.09.25,3.12c.12,1.5.44,3.04-.66,4.29-.98,1.12,1.23,2.52,1.23,3.2v4.78c.01,1.07-.99,2.77-2,3.13-3.14,1.1-6.35,1.75-9.51.67-.52-.18-1.27-1.51-2.08-.74Z"/>
    <path class="cls-1" d="M497.71,133.27c.03-.74.32-2.06-.13-2.56-1.11-1.24-1.45-2.62-1.84-4.25l-1.27-5.18c-.2-.8-.29-1.5-.52-2.35l-.74-2.77-1.29-5.87-.62-2.56-.58-3.33c-.39-2.26-1.3-4.39-.98-6.75.11-.79.38-2.05-.02-2.66-.55-.84-1.3-1.68-1.59-2.44l-.84-2.17c-.27-.69-.38-1.55-.53-2.36l-1.24-6.41-.71-3.19-.5-1.77-1.41-6.05-.75-3.26-.92-3.88-1.15-4.96.67-2.37c-.21-1.1-1.02-2.04-1.47-3l-1.14-2.48-.95-2.39c-.47-1.18-.82-2.69-1.03-3.86l-.88-4.76-1.31-6.59-.71-3.89c-.35-1.92-.43-3.82-.24-5.73-.67-.9-1.57-1.9-1.9-2.88l-.92-2.67-.8-3.12c-.33-1.28-.86-2.86-.81-4.06.12-2.56,1.93-3.51,4.05-3.58l5.06-.18c1.65-.06,3.2-.25,4.49,1.19l2.68-1.68c1.3-.81,4.42-.76,6.63-.04.78.25,1.49,1.47,1.8,2.18l1.04,2.4.97,3.08c.91,2.91,1.13,5.93.64,8.91-.93,1.03-.55,2.05.16,2.99,1.96,2.58,2.69,5.74,3.09,8.92l.72,3.26.68,3.66,1.06,5.46.64,3.75c.21,1.23.91,2.82.71,4.02-.25,1.49-.13,2.23.64,3.45,1.04,1.64,1.2,3.8,1.76,5.67l.47,1.58.64,3.53,1.24,6.94.52,3.85,1,6.94.73,4.45c.17,1.03.04,1.6-.7,2.32-1.38,1.35,2.35,2.49,2.61,3.58l.89,3.74,1.3,7.78.31,3.36c.16,1.78.75,3.67.3,5.42-.21.83-.39,1.19.21,1.97,1.25,1.61,2.05,3.4,2.63,5.31.3.98.31,1.87.49,2.91l1.09,6.23.34,2.93c-.46,1.05-1.77,2.01-2.91,2.11-2.43.21-4.83.61-7.12-.15-.57-.19-1.21-1.03-1.9-.87-.63.14-1.16.55-1.81,1.05-.9.69-2.46.37-3.54.48-2.03.19-3.32-.72-3.74-2.63-.25-1.15-.79-2.37-.74-3.69Z"/>
    <path class="cls-1" d="M264.87,152.51c-2.34-1.4-2.96.78-5.02.73l-5.16-.13c-2.9-.39-5.08-2.4-5.83-5.01s-1.58-6.34-.56-8.07c.23-.39.57-.93.5-1.26-.1-.47-1.02-.55-1.39-.72-1.73-.82-2.28-2.84-2.88-4.49l-1.47-4.06-2.46-7.17-.8-2.36-1.14-3.38-.93-2.93c-.31-.99-.38-1.9.43-2.74.42-.44.89-1.59.38-2.06-1.71-1.59-2.88-3.28-3.83-5.37l-.91-2-.92-2.15-1.77-5.15-.61-1.79-1.8-5.74-.96-3.33-.97-3.33c-.37-1.26-.83-2.83-.4-4.11.19-.55,1.17-1.65.45-2.19l-2.57-1.92-1.52-3.34-.97-2.66-.95-2.61-1.06-3.28-.92-2.94-1.18-3.57-.92-2.99-1.05-3.46c-.63-2.08-1.19-3.99-.1-6.18-2.37-2.1-3.78-4.68-4.91-7.5l-.91-2.26c-.36-.88-.71-1.69-.89-2.68l-.94-5.17,1.85-1.78c2.09-.34,4.41-.5,6.49.11,1.25.37,2.45.97,3.77.35l1.77-.83c1.97-.92,3.75-.69,5.8-.1,1.15.33,1.96.59,2.45,1.94l.8,2.21,1.03,2.81,1.12,3.89.97,3.87.2,4.48c1.68.89,2.58,2.15,3.13,3.77l2.15,6.23.85,2.58.69,2.07.92,2.86.93,2.88.95,2.93,1.04,3.75.11,3.5c1.6,2.1,2.69,4.32,3.58,6.76l.78,2.13,1.16,3.42.95,2.88.86,2.75,1.25,3.98.87,2.79.78,2.55c.37,1.21,1.09,2.4.98,3.75-.08.92-.64,2.27-.08,3l1.81,2.38.85,2.35,1.66,4.65.96,2.67,1.01,2.56.99,2.62.93,2.39,2.12,5.54,1.22,3.05,1.22,2.87c.63,1.48.23,3.09-.61,4.52,1.95,1.48,2.78,3.42,3.28,5.61l1.01,4.44c.31,1.36-.8,2.04-1.98,2.19l-2.81.36c-.99.13-2.03.17-2.92-.36Z"/>
    <path class="cls-1" d="M315.32,139.92l-.28,4.21c-.11,1.65-.59,3.23-1.27,4.81-1.14.53-2.73,1.16-3.99,1.16l-4.79.02c-.87-1.43-2.8-1.33-3.85-.16-3.18.87-6.4,1.34-9.65.32-.79-.25-1.33-1.77-1.19-2.47l.64-3.24.56-3.26,1.27-8.04,1.01-6.93c.24-1.63.07-3.14,1.44-4.43.83-.78,1.01-2.07.54-3.14-.67-1.53-.36-2.93-.11-4.49l.61-3.76.66-3.15.63-3.64,1.33-9.73.22-4.29c.21-4.01,3.11-4.41,2.24-6.5-.57-1.37-.46-2.65-.3-4.11l.38-3.52.47-4.56.22-3.16.83-5.26.63-4.91.8-4.29.8-3.1c.5-1.93,2.4-2.73,1.4-4.04-.58-.76-.75-1.73-.59-2.71l.77-4.98.46-3.61.46-2.68.65-4.43c.26-1.75.9-3.26.64-5.11-.11-.82.52-2.13,1.42-2.07,1.58.11,1.55,1.73,1.75,2.81l1.06,5.64.62,2.41,1.05,3.53.89,2.7,1.03,3.13.49,1.91c1.16,1.76,1.12,5.57.33,6.8-.44.69-.78,1.49-.16,2.13l2.12,2.17.88,5.67.93,3.63.93,3.12.99,3.86c.62,2.4.94,4.69-.19,7.07.13,1.71-.12,3.39-.65,5.01.11,2.61-2.66,2.93-.93,5.51.38.57.58,1.82.47,2.61l-.74,5.58c-.06.45.69,1.14,1.11,1.15l3.85.07c1.93.03,3.58,3.04,4.1,5.5.26,1.21.83,2.71.36,3.87-.24.58-.58,1.15-.63,1.7-.08.89,1.59,1.42,2.27,3.21l1.07,2.78c.37.97.55,2.04.04,3.03-.43.83-1.48,1.25-2.64,1.36l-4.12.41-6.8.17c-1.29.03-1.59,1.03-1.78,2.13l-.8,4.84-.81,4.97c-.26,1.58-.82,2.97-2.02,4.04-.39.35-.18,1.49.12,1.84.72.86.81,1.76.74,2.88Z"/>
    <path class="cls-1" d="M139.58,144.49c-1.9,1.77,1,2.81.7,5l-1.03,7.42c-.12.87-.65,2-1.58,2.18l-3.65.73c-1.01.2-2.41.21-3.52.06-1.01-.14-1.81-.98-2.7-1.75l-2.32,1.86c-2.8.51-5.64.52-8.53.33-.7-.05-1.36-.68-1.59-1.33-.52-1.41-.04-2.73.21-4.16l.91-5.16.67-4.6.75-3.95c.23-2.92.52-5.77,1.23-8.57l1.18-1.32c.26-.29.68-.84.66-1.17-.02-.44-.32-1.03-.59-1.55-.16-.5-.48-1.58-.37-2.18l.76-4.39.93-5.32.89-5.17.55-4.31.89-6.21c.17-1.21-.23-2.7.28-3.78.49-1.03,1.52-1.87,1.82-2.99.25-.95-.39-2.35-.34-3.32l.23-4.55.25-2.81c.21-2.35.66-4.42.7-6.79.04-1.9.52-3.85.82-5.72l1.13-7.04c.29-1.8,1.28-5.01,1.94-5.7.92-.95.67-1.68.16-2.72-.54-1.11-.22-2.71-.06-3.96l.36-2.88.56-2.41c.05-2.23.53-4.17.86-6.32l.77-5.03.31-2.31c.14-1.07.21-1.99,1.32-2.44,2.01.76,1.74,4.24,2.34,6.75l.89,3.72,1.26,4.19.88,2.75.88,2.7.99,3.1c.33,1.04.83,2.55.56,3.62l-.96,3.74c-.18.69,1,1.4,1.49,1.79.88.7.83,1.9,1.03,2.89l1.03,5.27.84,3.14,1.12,3.97.82,2.98c.39,1.44.31,2.94.07,4.41l-.98,5.95c-.26,1.57-.28,2.88-1.64,4.05-.42.36-.02,1.5.28,1.94.96,1.39.4,3.06.36,4.55l-.11,4.37c0,.34.61.91.96.92l4.3.02c2.48,1.31,3.31,3.93,3.76,6.64.27,1.63.25,3.07-.73,4.56.99.99,2.07,1.96,2.53,3.09l.8,1.95c.43,1.06.63,2.63.29,3.72s-1.59,1.28-2.46,1.34l-2.48.17-5.94.15-3.7.63c-.53.37-.86,1.66-.95,2.35l-.52,4.28c-.14,1.18-.48,2.19-.68,3.34l-.56,3.19c-.11.62-.88,1.67-1.34,2.1Z"/>
    <path class="cls-1" d="M27.45,165.84l-5.13.12-2.18-1.66c-1.49-1.13-2.41,1.06-4.67,1.68-2.02.55-4.22.94-6.21.52-.77-.16-2.08-1.3-2.17-2.02l-.29-2.4-.44-4.14-.25-5.54-.12-6.38c1.56-1.34,1.66-3.37.42-5.02-.45-.59-.32-1.64-.4-2.42l-.87-8.95-.16-5.44-.23-3.37-.26-3.83-.18-3.25,1.55-1.52c.45-.44-.05-1.4-.48-1.77l-.73-1.98c-.42-1.14-.66-2.21-.66-3.45v-4.12s.04-5.69.04-5.69l-.84-5.54c-.28-1.87-.15-3.8.08-5.67l1.07-3.22c.27-.83-.78-1.7-.92-2.41l-1.43-7.22c-.2-.99,0-2.26-.1-3.29-.17-1.69-.62-3.38-.63-5.07l-.06-12.64c.85-.97,1.05-2.19.18-3.16l-1.11-4.37-.22-2.11L0,34.53c-.01-1.67,1.28-2.66,2.86-2.67,2.49-.02,3.74,1.24,4.8,3.44.35.73.71,1.44.88,2.23l.98,4.34c.26,1.13.51,2.3.74,3.46l.58,2.99,1.4,6.89-.55,3.32c1.81,1.73,3.44,3.69,4.26,6.06l.97,2.84,1.04,4.79.31,3.34.63,5.24.21,4.12c.05.93-.35,2.2,0,3.05,1.77.67,2.09,2.03,2.43,3.53l.89,3.92.54,1.95,1.13,5.31.86,3.42.78,3.37.96,4.15.82,3.58c.36,1.56.75,2.92.81,4.64l.14,4.04.26,4.32.23,3.83.24,4.58v7.06c-.34.4-.94,1.06-.97,1.47-.04.59.54,1.2.79,1.8l1.21,2.88v11.71c-.05.36-.26,1.19-.55,1.35-.51.28-1.66.94-2.22.95Z"/>
    <path class="cls-1" d="M520.7,111.91l-.97-4.86-1.18-7.19c-.38-2.31-.07-4.48.48-6.9l-1.97-2.56-1.08-4.13-.25-1.77c-.75-1.2-.73-2.56-1.03-3.87l-1.06-4.63c-.43-1.9-.92-3.77-.67-5.71l.8-6.1.95-5.96.69-4.21c.14-.87.4-1.97.47-2.86,2.38-2.62-.06-3.97.26-5.56l1-5.01.71-3.77.72-4.53c.2-1.28.29-2.77.92-3.9.21-.38.95-1.12.86-1.52-.45-1.77-1.19-3.48-1.17-5.28l.08-5.2.61-5.15.74-2.27c.42-1.28.86-2.13,1.67-3.25l1.09-1.53c2.92-.38,6.18-1.02,7.83,1.01.28.34,1.23,1.02,1.57.78l2.51-1.8c1.91-.9,3.92-.57,5.93-.44l1.79-.35c.77-.15,1.77.43,2.15.96.6.84.48,1.83.01,2.75-.1,2.08-.46,4.04-1.07,6.09,0,2.51.07,5.16-1.31,7.34-.36.58-1.28,1.26-1.4,1.95,1.44,2.47.43,5.82.05,8.41l-.53,3.61-1.27,7.83-.57,2.94c.05,4.14-2.93,5.1-2.92,5.93,0,.28.35.71.54,1.02,1.25,2.03.93,4.45.75,6.74l-.21,2.67-.62,6.94-.89,5.15-.91,4.04-1.22,4.77c-.16.62-1.03,1.45-1.33,1.94-.72,1.19.38,2.39.58,3.48.48,2.6.25,5.33-.32,7.88l-.47,3.45-.9,5.97-1.11,7.22-.65,4.18-.41,3.49-1.3,7.09-.85,2.04c-.11.27-.58.71-.87.73-1.02.08-1.75-.76-2.06-2.13l-.66-2.86-1.32-6.63-.48-2.92c-.19-1.18-.5-2.27-.75-3.55Z"/>
    <path class="cls-1" d="M227.92,142.56l.21,2.3v8.07c-1.08,1.87-3.16,2.49-5.26,2.16-2.1.36-3.84-.29-5.33-2.07l-2.09,1.92c-2.46.82-5.01,1.18-7.62.8-.78-.11-1.89-1.1-2.15-1.81-.24-.67-.74-1.79-.75-2.41l-.06-13.42c0-.97.34-1.96.83-2.71.61-.93-.32-1.6-.54-2.32l-.84-2.75c-.6-1.95-.33-4.08-.45-6.1l-.19-3.13-.16-2.67-.15-10.02c-.02-1.05-.16-1.75.53-2.74.18-.26.56-.89.48-1.19-.21-.79-1.51-.85-2.01-5.57l-.27-2.58-.18-9.66-.27-6.2-.13-5.21c-.07-2.68,2.98-3.06,1.18-4.94l-1.53-1.6-.51-4.69v-2.67s-.26-2.61-.26-2.61l-.19-4.21-.25-5.74-.11-7.62c0-.46.65-1.24,1-1.6.68-.71-.33-1.53-.5-2.19l-1.38-5.55-.14-4.24c-.06-1.74-.38-4.83.53-5.45.35-.23,1.28-.06,1.49.27l1.09,1.77,1.06,2.58,1,2.6.64,2.02,1.83,5.95.94,3.1,1.1,3.68.93,3.86c.74,3.11-.89,4.86.04,5.65,1.88,1.58,3.03,3.69,4.07,5.82l.86,1.75.95,2.45c.44,1.14.71,2.16.97,3.37l.78,3.67.03,4.75,1.31,1.14c.59.51,1.23,1.36,1.5,2.07l1.1,2.96.82,2.51,1.11,3.27.99,2.8.98,3.65.25,2.54.48,5.3.27,3.12c.13,1.49.19,3.23-.11,4.65-.16.78-1.1,1.65-1.17,2.5,1.54,1.38,1.72,2.93,1.81,4.85l.18,3.81.25,2.66.22,2.87.08,8.15c-.87,1.51-2.47,2.29-1.29,2.91,1.01.53,1.64,1.31,1.74,2.41l.27,2.94Z"/>
    <path class="cls-1" d="M276.19,140.52l-.93-2.68-1.03-3.05-1.01-3.07-.96-2.83-1.12-3.48-.85-2.72-1.08-3.25-.93-2.88-1.11-3.68-.82-2.53-1.23-3.9c-.46-1.48-.23-3.14,0-4.7l-2.82-3.76-1-2.01-.94-2.65-2.17-6.52-.89-2.23-1.12-3.4-1.04-3.81-.31-2.78c-.23-2.07-.15-3.82.12-5.84l.29-2.15c.1-.72-.78-1.77-.96-2.48-.58-2.34-.32-4.66-.5-7.04l-.23-3.13-.25-4.56-.28-2.29c-.42-3.42,1.58-3.1,1.84-4.33.1-.48-1.6-2.74-1.76-4.31l-.64-6.54.28-2.37c.11-.91.16-1.8-.09-2.66-.56-1.96-1.06-3.76-.48-5.84.2-.71,1.39-1.98,2.18-1.98l4.79-.06c1.62-.02,3.17.91,4.76,1.45l2.02-1.85c1.15-1.05,2.77.05,3.97,0,1.09-.03,2.16-.77,3.31-.25.7.32,1.16,1.3,1.19,2.12l.18,4.83.28,2.93c.1,1-.44,2.36-1.03,3.21l-.59.85c-.16.23.21.91.46,1.14,1.17,1.11,1.45,2.79,1.52,4.46l.14,3.35.4,4.62.11,1.88.12,2.87.09,3.15.04,13.3-1.07,2.2,1.94,1.95c.31,2.12.28,4.27.38,6.49l.15,3.36.27,3.84.22,2.87.22,4.19.17,6.36c.06,2.2.2,4.27,0,6.47-.12,1.29-.17,2.59-.58,3.8-.87,2.52,1.66,2.65,1.47,5.54-.15,2.28.24,4.25.76,6.46l.34,3.26.17,8.75.28,2.39.03,3.4v3.38s.29,7.08.29,7.08c.02.42-.43,1.06-.75,1.09s-1.03-.41-1.14-.74l-.98-2.79-1-2.85-1.04-3.02Z"/>
    <path class="cls-1" d="M596.54,135.32l-3.99.22c-2.59.14-2.1-2.64-2.47-4.81-.71-4.16,1.89-5.01,1.82-6.13-.06-.96-2.1-1.1-2.17-3.02l-.08-2.15.03-2.67c.02-1.86.52-3.92,2.37-4.83,1.26-.62,2.94-.58,4.36-.71,2.19-.2,4.31-.29,6.43,0,1.56,1.25,3.46.98,4.87-.11l5.06-.73c.65-.09,1.85-.11,2.57,0,.51.08,1.38,1.03,1.49,1.57l.89,4.58c.71,3.66-3.04,4.61-.92,5.81,1.18,2.87,1.56,5.92,1.43,9.08.06.73.04,1.55-.4,2.04s-1.21.85-1.94.85l-7.52-.02c-.6,0-1.56-.42-2.07-.7-.96-.53-1.52-.14-2.39.31l-2.49,1.29-4.89.14Z"/>
    <path class="cls-1" d="M595.88,25.09l-4.38.22-4.49.06c-.74,0-2.07-1.2-2.19-1.99l-.52-3.53c-.24-1.62.34-3.54.7-5.11.07-.33.74-.9.72-1.23-.05-1.35-1.75-1.5-1.92-3.58-.19-2.39-.07-4.55.25-6.97l1.48-1.69c3.92-.38,7.79-.64,11.64.4.94.25,1.93.88,2.88.26,1.88-1.22,2.78-.65,2.95-1.94h5.75c.4.6.7.97,1.16,1.44l.58,5.5c.14,1.3-.45,2.93-.8,4.14l-.59,1.07c-.15.27.47.79.66,1.09l1.24,1.93.16,4.19c.41,2.05-.16,4.34-2.59,4.81l-2.29.22-3.68.2c-.7.04-1.92-.27-2.63-.6-.43-.2-.88-1.15-1.58-.61-.61.47-1.61,1.67-2.51,1.71Z"/>
    <path class="cls-1" d="M416.09,145.25l-4.83-.02c-1.2,0-1.29-1.68-1.52-2.52-1-3.71-1.27-5.28.7-8.43l.55-.89c.15-.24-.23-.88-.43-1.09-1.28-1.28-1.61-2.96-1.87-4.71-.24-1.62-.84-3.56.1-5.13.34-.58,1.68-1.35,2.41-1.35h6.26c2.43-.02,3.72,1.97,6.67.22,2.62-1.56,8.06-1.4,8.53-1.02,1.11.89,1.57,7.04,1.23,7.59l-2.19,3.59c3.02,1.83,2.32,2.8,2.59,4.91.35,2.74.22,6.5-1.88,7.58-.98.5-2.19.23-3.28.2l-6.09-.16c-1.06-1.3-1.64-.41-3.71.31-.99.34-2.08.9-3.24.89Z"/>
    <path class="cls-1" d="M597.2,78.06l-5.06.17-2.49.22c-.72.06-2.09-.29-2.21-1.08l-.44-3.02c-.36-2.49-.26-4.88.85-7.16.53-1.09-.13-2.07-.78-2.95l-.55-3.29c-.27-1.6-.26-3.06.3-4.63.47-1.31,1.77-2.03,3.23-2.06l7.13-.11c1.16,1.42,2.61,1.2,4.12.31.59-.35,1.91-.5,2.68-.61l3.46-.5c.58-.08,1.99-.19,2.3.42.84,1.66.98,3.41,1.21,5.14.25,1.91.19,3.57-.69,5.26l-.92,1.77c-.33.64-.18,1.33.23,1.99l1.18,1.85,1.04,4.09c.32,1.24-.31,2.49-1.58,3.08-1.5.7-5.64.84-6.65-.02s-1.48-.34-2.38.01c-1.15.45-2.58,1.09-3.97,1.14Z"/>
  </g>
  <g>
    <path class="cls-1" d="M118.94,235.64l-2.63.46-5.75.09c-2.03-1.45-4.87-4.09-5.36-6.27-.22-.98-.45-1.42-1.03-2.19l-8.72-11.65-3.03-4.19-.12-1.56-6.23-5.02-1.63-1.93-1.78-2.3-2.57-3.5-.38-2.2c-1.61-.12-2.24-1.07-3.05-2.27l-1.52-2.25-3.82-4.81c-.8-1-1.32-1.68-1.4-2.96-.08-1.2-.97-2.24-2.2-2.06l-2.22-2.36-1.96-2.41-1.64-2.39c-.16-.24-.33-1.03-.13-1.2l.87-.73h11.41c.84-.4,1.87-.93,2.73-.92l6.96.06c2.15.02,3.25,2.68,3.51,4.51,1.16.72,2.16,1.52,2.92,2.63l1.75,2.55c1.84,2.69,3.67,5.14,6.04,7.43.81.78,2.12,2,2.23,3.11l.26,2.55c1.7-.01,2.48.94,3.38,2.11l4.08,5.25,2.09,2.29,1.06,1.72,2.79,3.26c.62.73.73,1.66.31,2.58.4,1.04,1.38,1.65,2.55,1.75l4.24,4.93,3.42,4.23,2.62,3.58,1.62,3.43c1.93,1.12,4.84,3.99,4.84,5.16,0,.42-.82,1.01-1.29,1.02l-4.28.14c-1.3.04-2.66.35-3.99.06-.49-.11-1.45-.68-1.91-.56l-3.02.83Z"/>
    <path class="cls-1" d="M312.38,224.42l-3.82.88c-2.35.54-4.55.85-7.03.92-1.3.04-3.14.42-4.23-.66-.8-2.12-.01-4.75.67-6.85-.76-.87-1.48-2.24-.68-3.26,1.05-1.33,2.58-1.22,3.99-1.69l2.85-.94,1.65-1.34.99-1.93c1.27-2.49,3.78-2.04,2.24-4.06v-11.04c-.81-3.21.97-5.29.76-5.57l-.73-.98c-1.44-1.94-.47-5.48-1.9-8.77l-.95-2.18c-.83-1.91-2.15-3.56-3.97-4.72l-2.11-.97-4.94-.22c-1.12-.05-1.35-2.59-.82-3.39.76-1.16.59-2.18-.08-3.32-.52-.88-.6-3-.15-3.88.71-1.38,2.61-1.23,3.84-1.24l5.54-.02,6.06.93c.47.07,1.33.67,1.81.6,2.09-.28,3.86.4,5.68,1.22,3.84,1.73,6.9,4.61,9.08,8.23,1.22,2.01,2.43,4.09,2.49,6.55.01.5-.88,1.4-.21,1.99l1.62,1.42.66,4.85.49,3.93.06,2-.06,2.62c-.03,1.38-.27,2.46-1.06,3.67-.2.31.6.99.75,1.33.26.57.47,1.86.37,2.51l-.96,5.77-.81,2.79c-.51,1.77-1.28,3.37-2.26,5-.64,1.07-1.79,1.92-2.87,2.59l-2.05,1.28c-.49,1.39-1.21,2.27-2.47,2.9l-1.77.89-2.5,1.07-3.15,1.08Z"/>
    <path class="cls-1" d="M148.43,233.99l-7.04.51c-.37.03-1.23-.39-1.42-.7-.22-.36-.14-1.17-.18-1.69-.15-2.02-.34-4.01.32-5.92.31-.26.72-.65.77-.93.07-.38-1.81-3.89-1.88-6.34l-.14-4.54-.25-4.09-.21-3.59c-.11-1.87.24-3.61,1.34-5.22-1.43-.81-1.73-1.93-1.79-3.42l-.16-4.29-.23-3.14-.25-3.36-.16-3.3c-.05-1.09-.34-2.27.29-3.2.23-.33.59-.78.58-1.06s-.32-.76-.56-1.09c-.61-.87-.63-1.99-.69-3.1l-.18-3.37-.07-2.84c-.03-1.04.84-1.36,1.66-1.5,2.63-.45,6.03-.84,8.19,0,1.24.48,2.07.18,3.23-.35s2.81-.64,4.15-.64h2.97c.41.02,1.07.31,1.28.58.34.42.89,3.63.38,4.54-.28.5-1.07,1.26-.66,1.77.61.76,1.3,1.55,1.32,2.54l.12,6.16.22,4.4.23,4.07.24,3.84c.09,1.38.48,3.04-.04,4.35-.29.74-1.37,1.47-.39,2.31.55.47.87,1.13.92,1.93l.25,3.87.22,3.13.23,4.34c.09,1.68.62,3.62-.12,5.15l-.7,1.44c-.19.39.48,1.11.72,1.6.49.99.56,2.28.65,3.43l.26,3.34c.13,1.71.07,3.56-1.96,3.86l-2.22.33-6.67.03c-.75-.69-1.84-.81-2.55.16Z"/>
    <path class="cls-1" d="M506.83,215.35c-.83,1.23-3.6.86-5.46.78l-3.72-.16-3.87-.9c-1.78-.41-3.2-1.2-4.26-2.75l-1.65-.22c-2.72-1.17-4.87-3.12-6.41-5.58l-1.61-2.55-.03-2.29c-1.63-1.05-2.33-2.64-2.55-4.47l-.68-5.58c-.15-1.2-.12-2.09.22-3.28.28-.96.08-2.21-.03-3.25l-.17-1.58c-.17-1.64-.56-3-.66-4.65l-.14-2.41v-5.49c0-2.64.56-3.43,1.92-5.49-1.84-5.91,5.17-10.85,9.93-14,1.15-.76,2.42-1.06,3.83-1.28l2.01-.99,3.87-1.14,5.27-.1c.59,1.18,1.45,2.88,1.07,4.25-.59,1.04-1.28,2.28.11,3.27l-.05,2.79c-.03,1.81-2.83,2.82-3.52,4.25l-1.05,2.18-1.48,4.23c-.11.31-.88.93-.69,1.18l.95,1.21c.65.83.1,2.25.1,3.25l.03,6.95.2,4.11.64,4.02.16,3.38c.03.67-.33,2.13.02,2.71l1.18,1.98.9,2.01c1.85,4.13,4.68,4.57,4.67,4.55.48.72,1.09,3.65.63,5.13-.24.79-.48,1.69-.15,2.36.64,1.29,1.07,2.65.45,3.56Z"/>
    <path class="cls-1" d="M404.79,220.03c-.79.41-2.21,1.02-3.17,1.02l-5.29.03c-1.24,0-1.93-1.29-2-2.34l-.23-3.65-.26-5.74v-2.65c0-2.02.99-2.13,1.1-2.97.04-.28-.35-.83-.59-1.02-.84-.66-.79-1.46-.94-2.5l-.43-3.08-.06-8.6-.15-1.45c.3-1.36.01-2.8-.16-4.16l-.33-2.57-.21-2.93-.11-5.26-.42-2.42c-.61-3.54-1.34-6.3,1.34-9.32-1.31-.98-2.18-2.32-1.8-3.88.34-1.4,1.66-2.58,3.29-2.57h5.52s1.42.69,1.42.69c1.63.79,2.32-.63,5.17-1.26,1.78-.4,5.17-.22,6.06.79s.85,3.63-.37,5.29c.51.68,1.12,1.75,1.11,2.73v8.32s-.3,3.23-.3,3.23l-.38,1.19c-.17.52,1.58,1.07,1.64,2.79l.14,3.78.21,2.68.26,4.08c.07,1.09.41,2.43.02,3.5-.15.43-.91.99-.89,1.43.02.5.33,1.21.66,1.68.68.98.57,2.24.62,3.44l.2,4.55.23,2.89.24,2.99v4.54c.01.27-.81.78-.68.99l.62.98c.56.88,1.56,1.76,1,2.98-.22.47-.86,1.28-1.26,1.77l-2.25.34c-1.85.28-3.86.17-5.64-.11-1.14-.18-1.68-.85-2.94-.19Z"/>
    <path class="cls-1" d="M276.85,227.42c-2.78.25-6.92.52-6.94-1.28l-.07-4.51-.23-2.69-.24-2.37-.25-3.15c-.1-1.3-.42-2.72.21-3.95.43-.83,1.02-1.93.34-2.77-.73-.91-.91-1.88-.98-3.11l-.16-3.11-.24-3.12-.25-3.19.03-4.31c0-.34.76-1.06.61-1.31-1.21-.93-1.81-2.39-1.71-3.89l.21-3.38.13-7.06c.2-.33.6-.95.71-1.26.12-.35-.49-.93-.66-1.38l-.63-1.78c-.43-1.21-.74-2.32-.73-3.62v-2.4c0-.83.05-1.66.6-2.18s1.24-.67,2.1-.74c2.63-.21,5.38-.44,7.9.3,1.29.38,1.95.15,3.15-.52,1.73-.96,7.27-1.02,7.94-.05.98,1.41.82,3.35.15,4.81-.38.83-.16,1.45.65,1.9l.34,2.46v10.25c-.35.52-.75,1.36-.71,1.9.97.73,1.36,1.58,1.42,2.74l.19,3.35.24,3.81.21,4.72c.11,2.38-.92,2.85-.91,3.13.03,1.02,2.14,1.71,1.73,3.93-.37,2.02-.13,3.96-.08,5.99l.13,5.51c.04,1.51.44,3.08-.1,4.51-.12.33-.58,1.11-.42,1.41.78,1.46,1.33,3.09.77,4.76-.82.61-2.13.85-3.21,1.05-2.23.41-4.39.45-6.48-.45-1.53.71-3.08.87-4.78,1.03Z"/>
    <path class="cls-1" d="M16.13,241.13l-6.19.21c-1.08.04-1.97-.74-1.98-1.89l-.02-8.68c.37-.48.92-1.2,1-1.66.09-.53-.75-1.43-.82-1.94l-.56-4.13-.06-3.39-.21-3.83-.05-2.69v-6.32c.35-.52,1.14-1.64.82-2.09l-1.55-2.21c-1.08-1.53-.31-3.61-.41-5.38l-.16-2.94-.29-2.3c-.18-1.44-.27-2.63.72-3.82.44-.53.52-1.37-.08-1.84-1.95-1.53-1.07-5.01-.85-7.65.06-.77-.41-2.21-.09-2.89.73-1.54,2.22-1.29,3.48-1.42,2.85-.29,5.37-.45,8.04.77.59.27,1.63-.66,2.18-.79l2.76-.63c1.37-.31,2.38-.28,3.61.14.94.32,1.34.69,1.59,1.64.94,3.62-1.74,3.83,0,5.77.38.42.27,1.59.29,2.23l.2,4.57.24,2.89.24,3.33.22,3.69-.07,5.98c-.09.45-1.15,1.4-.87,1.78,1.39,1.42,1.47,2.87,1.57,4.66l.24,4.54.17,4.07.15,4.3.57,7.93c.15,2.11-.7,2.5-.75,3.43-.02.28.53.7.69.96.87,1.48.15,3.42-1.24,4.37l-2.61.57c-1.04.23-2.51.56-3.48.02-1.21-.68-2.29-.68-3.3.43l-3.15.19Z"/>
    <path class="cls-1" d="M207.9,230.73c-.4-.21-.6-1.21-.62-1.65l-.14-2.3-.02-6.59c2.08-1.66.06-2.4-.09-5.05l-.13-2.21-.15-5.72-.09-2.48-.31-7.16c-.04-1.02.62-1.92,1.27-2.96l-1.32-1.82c-.58-.8-1.17-2.27-1.11-3.28l.18-3.44c-.33-2.69-.86-5.38-.16-8.02.25-.33.69-.88.74-1.21.15-.97-1.34-1.44-1.31-2.68l.11-4.59c.03-1.02.17-1.89-.03-2.94-.11-.56-.1-1.44.22-1.86.29-.39,1.11-.91,1.69-.91l6.22-.04,2.82.43c.22.03.66.61.85.51l.84-.45,2.82-1.06c1.17-.44,4.52-.54,5.44.57s1.12,4.54-.43,5.66l1.1,1.27.37,2.61.24,4.11.22,2.41.12,9.56c.02,1.31.47,2.9-.02,4.14-.15.38-.91,1.16-.71,1.5.55.87,1.56,1.8,1.58,2.8l.12,9.07.19,2.67.42,4.28.21,3.65.03,5.18c-.48.43-1.03,1.08-.43,1.78,1.23,1.42,1.06,3.93-.9,4.92-1.83.92-4.3.92-6.38.67-.37-.21-1-.54-1.31-.61-.98.72-2.03.96-3.16,1.06l-2.42.21-3.36.27c-1.09.09-2.13.28-3.21-.28Z"/>
    <path class="cls-1" d="M525.4,213.11c-2.05.57-3.88,1.49-5.43,1.79l-3.28.64c-.92.18-1.61.29-2.48,0-1.06-.34-1.68-.92-1.53-2.12-.38-1.17-.19-2.43.23-3.63-.52-1.11-.81-2.34-.7-3.55-.19-1.69.98-2.52,2.07-3.53,1.83-1.69,3.07-4.14,3.63-6.58.22-.96.45-1.56,1.28-2.3.06-.43-.55-1.09-1.17-1.47l-.09-12.76-.23-3.6-.25-3.84c-.04-.61-.33-1.69,0-2.16,1.54-2.17-.62-1.37-1.87-4.62l-.86-2.25c-.24-.62-.91-1.92-1.45-2.27l-3.35-2.15-.39-5c.32-.8.98-1.68.11-2.76-.77-.94-.72-2.52.45-3.32,1.28-.87,3.01-.71,4.55-.47l5.52.85,5.1,1.28,1.69,1.72,1.55.07c2.58.91,4.41,2.75,5.83,4.99l1.13,1.78c.72,1.14.81,2.6.63,3.83,1.25,1.02,1.9,2.09,2.27,3.64.34,1.45.82,2.87.8,4.41l-.07,3.9c-.03,1.54-1.75,2.2-.4,3.8.5.59.33,1.8.5,2.58.51,2.36.81,4.56,1.01,6.93.22,2.64.18,7.42-.8,8.96l-1.07,1.69c-.81,1.28,1.57,3.28-2.3,8.22-2.64,3.37-6.4,6.1-10.6,7.27Z"/>
    <path class="cls-1" d="M454.07,217.97l-3.1.87-4.25.09c-.53.01-1.6-.56-1.84-1.02-.43-.86-.53-2.03-.66-3.03-.41-3.22,1.61-3.49-.16-5.69l-.31-7.92c-.04-1.03-.35-2.17.25-2.97l.61-.82c.07-.09-1.63-.77-1.66-4.05l-.12-9.97-.24-2.15-.3-3.13c-.07-.7-.02-1.55.31-2.1.63-1.05.12-1.52-.3-2.38-.61-1.24-.35-2.97-.41-4.39l-.27-5.55c-.04-.92-.4-2.37-.07-3.15.56-1.32.43-1.85-.16-3.09-.4-.84-.18-2.63-.1-3.58.86-1.54,2.09-2.35,3.75-2.11,2.65-.52,5.26-.3,7.86.22,1.22-.65,2.5-.88,3.9-.99l2.17-.17c.98-.08,1.89,0,2.53.63.67.66.79,1.65.85,2.69l.27,4.79.23,2.62.02,1.98c.02,1.95-1.13,2.13-1.11,3.19,0,.42.59.95.95,1.42.69.89.48,2.35.53,3.48l.21,4.56.23,2.45v3.93c-.28.35-.78,1.04-.74,1.42.14,1.2.96,1.01,1.05,2.97l.14,3.15.51,6.73.14,2.38c.06.91.38,2.11,0,2.95-.42.9-1.28,1.9-.54,2.85.37.48.92,1.22.94,1.86l.1,4.57.03,2.47-.16,2.54c-1.78,2.17-6.63,2.19-9.39,1.04-.36-.15-1.19.29-1.67.43Z"/>
    <path class="cls-1" d="M354.19,222.85c-1.37.61-6.72.73-7.76-.14-.59-.5-.87-1.39-.95-2.3l-.16-2.03c-.08-.96.05-1.78.82-2.36,1.07-.81-1.1-1.55-1.11-3.03l-.07-6.28c-.01-.9-.47-2.38-.07-3.18l.89-1.78c-1.23-.74-1.45-1.66-1.51-2.95l-.14-2.9-.19-5.86-.21-4.2-.23-2.88c-.06-.81-.13-1.73.23-2.41.49-.93.2-1.27-.19-2.14-.46-1.02-.54-2.52-.58-3.72l-.2-7.24c-.02-.85-.34-1.93.06-2.65.22-.39.51-.85.54-1.13.04-.33-.39-.78-.7-1.22-.73-1.04-.8-5.78,2.52-6.18,2.25-.27,4.82-.22,7.21-.03.66.05,1.03.41,1.74.16,1.59-.56,3.26-.66,4.98-.86,1.27-.15,2.98-.47,3.89.86.55.81.45,2.5.52,3.52l.23,3.41.41,3.63c.08.67-.07,2.03-.42,2.56-1.7,2.6.38,2.33.51,4.8l.24,4.36.24,3.1.15,5.37c-.98.75-1,1.97-.15,2.76.28.83.35,1.73.41,2.64l.42,6.49.24,2.41.15,2.14c.07,1,.42,2.45-.09,3.29-.38.64-.69,1.07-.79,1.6-.14.76.51,1.21.78,1.79.71,1.52.33,3.37.51,5.06l.19,1.86-.25,2.69c.24,1.38-.89,2.38-2.22,2.23-1.94.96-4.12.87-6.06.14-1.46-.55-2.55.01-3.82.58Z"/>
    <path class="cls-1" d="M602.9,210.39h-5.28c-2.64,0-4.74-1.5-4.93-4.35l.07-1.56c.01-.25.1-.93-.13-1.03l-1-.43c-.4-.17-1.15-.73-1.47-1.05l-3.26-5.38-2.72-4.75c-1.02-1.77.24-1.75.24-2.96,0-.21-2.73-1.55-4.52-4.53l-2.42-4.04-2.96-5.95c-.46-.91-.61-1.53.08-2.58.19-.28-.78-.53-1.12-.69-1.43-.66-2.37-2.18-3.14-3.52l-2.97-5.19-1.78-3.29c-.36-.67-.86-1.62-.71-2.36.16-.81.14-1.43-.51-1.88-2.27-1.58-3.87-3.58-5.01-6.05-.26-.56-.54-1.37-.26-1.96.22-.47,1.03-1.18,1.65-1.18l6.11.02c1.68,0,2.73.18,4.3-.4,1.87-.68,4.5-.63,6.41-.06,1.62.48,2.25,2.21,2.97,3.47.42.73,1.16,1.78,1.28,2.49l.57,3.17c1.87.79,2.85,2.36,3.87,4.06l.8,1.33,3.43,6.18c.47.86.67,1.6.76,2.63.1,1.17,1.53,1.77,2.08,2.62l2.74,4.22,1.79,3.25.85,1.59,2.05,4.15.11,1.8c1.65,1.23,2.52,2.94,3.61,4.59l6.67,10.11c.23.35.74.85.69,1.18-.05.36-.28.86-.53,1.4l.99.86c1.13.98,1.97,2.48,2.49,3.96.26.74-1.07,1.79-1.77,1.79h-5.53s-1.01-.45-1.01-.45c-1.2.38-2.3.78-3.57.78Z"/>
    <path class="cls-1" d="M574.2,208.25c.03.9.21,2.01-.19,2.72-.31.54-1.3,1.21-2.09,1.21l-5.25.04-2.14-.82c-2.42,1.28-4.79,1.69-7.48,1.59-1.16-.04-2.6-.14-3.3-1.37l-.04-7.75c.65-1.28.43-2.54-.56-3.6l-.36-2.69.02-9.1.64-.92c.34-.48-1.16-1-1.44-3.38l-.18-1.5-.02-10.31c.56-.35,1.01-.88,1.01-1.26-.02-1.43-1.48-1.12-1.53-3.47l-.11-4.93-.1-6.82c.27-.46.71-1.35.64-1.8-.62-.76-.87-1.55-1.03-2.46-.35-2.02-.76-4.76.39-5.5s2.91,1.75,3.96,3.61l1.3,2.31.89,1.77.99,1.87,1.17,2.43c.55,1.14.97,2.04-.08,3.3l1.41.89c2.3,1.46,3.82,3.81,4.95,6.3.49,1.08.48,2.51.54,3.81,1.27.62,2.3,1.51,3,2.72l2.3,3.96c.75,1.29,1.52,2.84,1.53,4.43l.05,5.76-.66.84c-.29.37.88.87,1.01,2.63l.25,3.42.1,5.32c-.29.29-.82,1.04-.66,1.3l.92,1.52.12,3.92Z"/>
    <path class="cls-1" d="M177.14,206.1l-7.58.82c-.87.13-2.45-.58-3.25-.97-.78-1.21-.66-3.26.02-4.4.17-.29.86-.99.61-1.22-1.25-1.06-2.08-2.64-1.49-4.25.36-.98,1.22-1.24,2.26-1.11l1.86-.67c1.13-.4,1.84-.52,2.68-1.24s1.58-1.39,2.01-2.33l1.09-2.33c.31-.67.75-1.81.73-2.47l-1.43-2.92c-1.56-3.17-4.87-4.66-8.38-4.68-1.51-.01-2.32-1.72-2.22-3.01.15-1.99,1.4-2.08,1.27-2.8-.05-.31-.48-.66-.83-1.07-.72-.84-.95-2.77-.36-3.87.49-.9,2.1-1.58,3.14-1.57l10.5.03c1.81,0,3.83.55,5.5,1.14l3.07,1.09c.83.29,1.5,1.66,2.2,2.29.98.43,2.76,0,3.62.64,1.83,1.36,3.45,3.41,3.84,5.47l.79,4.15c.15.78.36,2.24.04,2.89-1.09,1.21-.37,2.24.16,3.46.74,1.72-.25,3.99-.59,5.72l-.97,2.84c-.94,2.75-3.02,4.41-6.12,4.56.21,1.48-.3,2.62-1.7,3.1l-2.5.86-3.46,1.04-4.5.78Z"/>
    <path class="cls-1" d="M614.11,196.71l-5.44-9.9-.04-2.15c-1.28-1.07-2.73-2.14-3.55-3.53l-3.14-5.33-.49-.99-.78-1.61c-.91-1.89-.98-3.98.15-5.78-.8-1.05-1-2.13-1.06-3.39l-.14-3.39c-.05-1.28-.24-3.01.06-4.18.39-1.52.41-2.63-.62-4.01l-.15-2.38c-.1-1.62-.27-3.56.1-5.09.32-1.36,2.53-1.63,3.57-1.6l4.12.12,2.49.54c.55.12,1.48-.67,1.97-1.03l4.45-.14c1.1-.04,2.5-.55,3.33.63v5.3s-.68,1.21-.68,1.21c.61.86,1.09,1.77,1.18,2.72l.22,2.2.06,11.26c-.76,1.06-.81,2.4.5,3.17l.24,2.36.18,3.35.37,3.66.03,7.27-.94,2.34c1.07,1.06,1.07,1.76,1.37,3.02l.59,2.41.04,12.68c0,.58.39,1.49-.61,1.77-.79-.42-1.62-1.5-2.12-2.38l-5.26-9.13Z"/>
    <path class="cls-1" d="M82.01,237.6l-1.89.37c-1.41.27-3.23.32-4.49-.36-1.08-.58-1.62-.63-2.68.15-.87.64-2.4.94-3.55.94h-2.07s-3.03-.16-3.03-.16c-.3-.02-.84-.34-1.04-.54s-.22-.96-.06-1.21l1.01-1.62,1.75-2.81c.6-.97,1.46-1.44,2.83-1.63-1.01-1.35-.76-2.39-.06-3.48l2.18-3.36c.99-1.52,2.09-2.78,3.39-4.08l.11-1.77c1.92-3.39,3.81-6.79,6.25-9.81.83-1.02,2.18.09,2.67.72l2.14,2.75c1.2,1.55.21,3.35,1.33,3.35s1.86.43,2.43,1.27l1.27,1.87,1.98,2.76c.82,1.14.72,1.91-.1,3.11l-2.43,3.56-1.8,1.48-.6.55c-.41.38,1.54,1.43.28,3.24-1.03,1.48-2.09,3.03-3.47,4.17l-2.36.54Z"/>
    <path class="cls-1" d="M109.92,195.97l-3.13-4.18-.08-2.75c-1.84-.08-3.42-.64-4.51-2-1.42-1.78-2-4.34-.85-6.33.92-1.59,2.29-2.92,3.59-4.22-.69-.9-.72-1.72-.11-2.63l.88-1.31c.8-1.18,1.73-2.43,3.04-3.2l2.57-.22,5.93-.07c.77.69,1.72.98,2.58.33,1.05-.42,2.08-.54,3.23-.62l3.36-.25c.57-.04,1.73-.34,2.16-.03.93.67.41,1.78,0,2.47l-.99,1.68c-.76,1.28-1.81,2.2-3.05,2.94-.03,1.22-.27,2.57-.94,3.58l-1.27,1.91c-.9,1.35-1.8,2.84-3.05,3.86-.65.53-1.18.61-1.05,1.69.1.8-.42,1.54-.81,2.21l-1.84,3.25-1.12,1.99c-.54.96-.65,2.39-1.82,2.93-1.08.49-2.06-.11-2.74-1.02Z"/>
    <path class="cls-1" d="M241.35,229.29l-5.44.13c-1.14.03-1.56-3.27-1.06-4.03.26-.4,1.12-1.09.69-1.52-1.06-1.06-1.72-2.4-1.23-3.77.77-2.12,2.58-2.79,4.63-2.91l3.16-.19c1.16-.07,2.59-.37,3.67-.08,1.75.47,3.12.27,4.87.08l4.39-.5,3.5-.15c1.1,1.07,1.68,2.74,1.11,4.12-1.05,2.55,1.19,4,.54,7.05-.09.42-1.11.74-1.55.77l-1.97.16-5.88-.03c-1.58,0-2.88-.56-4.32.23s-3.42.59-5.12.63Z"/>
    <path class="cls-1" d="M43.81,239.75l-2.83.23c-1.39.11-2.84.14-4.29-.04-.85-.16-1.51-1.86-1.47-2.64.05-.98.75-1.91,1.66-2.85-1.26-.59-1.9-1.48-1.9-2.81.01-2.15,1.86-3.77,3.13-3.8l4.1-.08c2.21-.05,4.25-.26,6.46.07,1.11.17,2.1-.23,3.14-.45,2.34-.5,4.95-.78,7.33-.34,1.26.24,1.44,2.58,1.25,3.59-.37,1.89-.26,3.15.55,4.87.24.51.34,1.72.02,2.22-.33.53-1.18,1.09-1.91,1.17l-3.37.35-2.93-.14c-.9-.04-1.73-.08-2.58-.32-.78-.22-1.31,0-2.12.16l-4.26.8Z"/>
    <path class="cls-1" d="M237.71,174.19c-1.82.09-3.66.21-5.34.04-.87-1.32-.9-3.32-.07-4.6,1.22-1.89-1.73-1.23-.65-5.2.21-.79.23-1.61,1.31-1.88,1.5-.38,3.15-.51,4.78-.52h3.6c1.49-.01,2.73.2,4.16.81l1.73-.75,4.09-.82c1.17-.23,2.97-.03,3.82.93.99,1.12.65,2.95.08,4.13-.53,1.1-.04,1.62.69,2.37l.17,2.92c.07,1.2-1.79,1.67-2.69,1.74l-2.75.19c-1.48.1-3.22.17-4.64-.04s-2.11-.03-3.39.45l-4.91.24Z"/>
    <path class="cls-1" d="M39.77,184.77l-5.94.05c-1.14,0-1.75-3.02-.8-4.67.7-1.22.06-1.49-.58-2.34-.7-.93-.33-2.82.25-3.83.43-.76,1.31-1.24,2.17-1.24l9.2.03c1.31,0,2.47.56,3.74-.01,1.87-.85,3.85-.82,5.92-.83,1.05,0,2.23.12,2.55,1.24.45,1.57.27,2.98-.6,4.43-.24.39.39,1.02.57,1.4.52,1.1.6,2.42.6,3.7-.87.45-1.97,1.39-2.89,1.39h-7.4c-.88,0-1.56-.13-2.4.09-1.39.36-2.82.59-4.38.6Z"/>
    <path class="cls-1" d="M241.1,200.54c-2.3.23-4.62.63-6.9.34-1.66-.21-1.47-3.89-1.01-4.67.34-.59.87-1.33.64-1.77l-1.04-1.97c-.23-1.41,0-2.62,1.21-3.43l7.99-.79c1.28.8,2.75,1.04,4.12.41,1.93-.74,6.12-1.12,7.58-.76,1.53.38,2.38,4.68-.5,6.53l2.02,2.06c.08.64.08,1.75-.07,2.5s-3.84,1.53-6.47,1.1c-1.46-.24-2.94-.01-4.44.13l-3.13.31Z"/>
    <path class="cls-1" d="M41.34,211.18l-7.22.05c-.05-1.71-.18-3.36.1-4.87.16-.88.49-1.29-.05-2.18-.74-1.21-1-3.1.15-4.22.74-.73,2.24-.89,3.31-.96l3.39-.23c1.33-.09,2.43.16,3.68.75l2.63-.55,5.69-.86c1.24-.19,1.93.23,2.45,1.38,1.4,3.1-1.32,4.97-1.06,5.64.34.89,2.6,2.4,1.48,4.31-.51.87-4.52,1.3-5.95,1.03-1.92-.36-3.42-.22-5.28.42l-3.33.27Z"/>
    <path class="cls-1" d="M379.08,166.66c-3.77,1.03-8.51,1.58-8.23-1.92.07-.86.31-1.47.74-2.22.37-.65-.63-1.46-.72-1.98l-.58-3.42c-.3-1.77,1.74-2.04,2.96-2.03s2.37-.28,3.41.27c1.82.97,1.87-.73,5.01-.74h2.7c.75,0,1.78.37,1.93,1.17l.46,2.4c-.42.99-.8,2.16-.36,3.05,1.23,2.48.55,5.06-1.1,5.43-2.01.44-4.17.26-6.22,0Z"/>
    <path class="cls-1" d="M420.65,164.8c-1,.09-2.16-.34-2.44-1.3-.35-1.21-.36-2.67-.15-3.83l.83-.9c.22-.24-.2-1.03-.33-1.36l-.63-1.63c-.27-.72-.31-2.21.69-2.56,1.89-.66,3.96-.73,6-.71,1.2.73,2.63.79,3.76-.16l3.02-.37c.36-.04,1.18.12,1.42.36.82.83,1.46,4.48-.16,6.23l1.26,2.68c.48,1.01-.71,2.89-1.86,2.92l-6.42.18-4.99.45Z"/>
  </g>
</svg>